<?xml version="1.0" encoding="UTF-8" standalone="no"?>
<!-- Created with Inkscape (http://www.inkscape.org/) -->

<svg
   width="238.11212mm"
   height="324.58859mm"
   viewBox="0 0 238.11212 324.58859"
   version="1.1"
   id="svg1"
   xml:space="preserve"
   inkscape:version="1.4.2 (f4327f4, 2025-05-13)"
   sodipodi:docname="gingerbreadoutlineinkscape.svg"
   xmlns:inkscape="http://www.inkscape.org/namespaces/inkscape"
   xmlns:sodipodi="http://sodipodi.sourceforge.net/DTD/sodipodi-0.dtd"
   xmlns="http://www.w3.org/2000/svg"
   xmlns:svg="http://www.w3.org/2000/svg"><sodipodi:namedview
     id="namedview1"
     pagecolor="#ffffff"
     bordercolor="#000000"
     borderopacity="0.25"
     inkscape:showpageshadow="2"
     inkscape:pageopacity="0.0"
     inkscape:pagecheckerboard="0"
     inkscape:deskcolor="#d1d1d1"
     inkscape:document-units="mm"
     inkscape:zoom="0.71891835"
     inkscape:cx="1130.8656"
     inkscape:cy="650.28247"
     inkscape:window-width="1920"
     inkscape:window-height="1046"
     inkscape:window-x="-11"
     inkscape:window-y="-11"
     inkscape:window-maximized="1"
     inkscape:current-layer="layer1" /><defs
     id="defs1" /><g
     inkscape:label="Layer 1"
     inkscape:groupmode="layer"
     id="layer1"
     transform="translate(242.36409,60.960398)"><path
       style="fill:none;stroke:#0a0a0a"
       d="m -122.50208,192.35208 v 0.79375 M -80.925333,34.660409 c -1.638578,-2.319923 3.42439,-6.016931 4.99059,-8.444932 2.171637,-3.366558 4.274106,-6.078503 5.767296,-9.811318 1.677821,-4.194415 3.297167,-8.9256182 3.74764,-13.229167 0.0655,-0.6258016 0.11196,-0.9706772 0.273982,-1.5875 0.159163,-0.60593849 0.225309,-0.95917921 0.263546,-1.587527049011 C -65.823126,-0.9714874 -65.730334,-1.5408325 -65.55155,-2.6458684 c 0.171555,-1.0604005 0.193465,-1.6806469 0.199665,-2.6458334 0.0066,-1.0240655 0.160249,-1.7355208 0.240699,-2.9104168 0.152526,-2.2273184 -0.178527,-3.8230874 -0.237227,-5.8208334 -0.02568,-0.873752 -0.04946,-1.454304 -0.268266,-2.38125 -0.48248,-2.043997 -0.664946,-3.988775 -1.227783,-6.085417 -0.67806,-2.525847 -1.395716,-5.015359 -2.497409,-7.408333 -1.044655,-2.26908 -2.495326,-4.37328 -3.855853,-6.350001 -4.554034,-6.616618 -11.262798,-12.77816 -18.348121,-16.739999 -3.538076,-1.978368 -7.233877,-3.489193 -11.112505,-4.777809 -1.4886,-0.494576 -2.94996,-0.773144 -4.49791,-1.148573 -10.36505,-2.513865 -20.84627,-1.642148 -31.22084,0.342356 -1.17877,0.225471 -2.10566,0.199503 -3.175,0.421809 -0.87707,0.182321 -1.77621,0.464668 -2.64583,0.739231 -6.01414,1.898818 -11.61929,4.182077 -16.93333,7.763964 -7.08241,4.773837 -12.49378,11.288653 -16.13285,18.955272 -1.43479,3.022748 -2.77788,6.87739 -3.1554,10.31875 -0.0678,0.617695 -0.0622,0.978816 -0.21415,1.5875 -0.18523,0.74188 -0.30845,1.114757 -0.33645,1.852083 -0.0223,0.586657 0.002,1.045867 -0.0498,1.5875 -0.0999,1.049355 -0.21967,2.593963 -0.21967,3.704167 v 2.9104167 c 0,1.9011114 -0.16353,3.4555386 0.11229,5.5562502 0.1335,1.0169276 0.1455,1.4758789 0.1525,2.38125003 0.007,0.85556795 0.0433,1.27602034 0.26438,2.11666667 0.52224,1.9853117 0.75302,3.9102589 1.31639,6.0854169 0.49963,1.9290489 1.06156,3.7296495 1.73162,5.5562505 1.93349,5.270705 4.43705,10.247033 7.30892,15.08125 1.1314,1.904486 2.28305,3.506666 3.72703,5.179384 0.44338,0.513599 0.99906,1.218271 0.96626,1.625272 -0.0304,0.37727 -0.53234,0.925218 -1.29311,1.664465 -0.93618,0.909683 -0.9746,1.398559 -2.38003,1.243303 -1.47946,-0.163427 -4.75737,-1.219806 -6.35,-1.668761 -4.61044,-1.299662 -9.61626,-1.840925 -14.02291,-2.939808 -0.69977,-0.174505 -1.14975,-0.307666 -1.85209,-0.336656 -0.78294,-0.03231 -1.30982,-0.01918 -2.11666,-0.201909 -0.80145,-0.181497 -1.3004,-0.290647 -2.11667,-0.331957 -1.01966,-0.05159 -1.45062,-0.196277 -2.64583,-0.254377 -0.93474,-0.04544 -1.42462,-0.08636 -2.38125,-0.199245 -1.2477,-0.147217 -2.05018,-0.04013 -3.175,-0.187827 -1.61209,-0.211668 -3.90307,-0.271823 -5.55625,-0.07676 -1.17111,0.138183 -1.85258,0.139863 -2.91042,0.212713 -1.02135,0.07033 -1.5601,0.174408 -2.64583,0.31542 -2.17738,0.282799 -4.45932,0.838644 -6.61459,1.228607 -0.80016,0.144775 -1.33368,0.296865 -2.11666,0.580617 -5.4668,1.981146 -10.51727,5.490024 -13.52458,10.551682 -1.9506,3.283085 -3.58449,6.934541 -4.14739,10.847917 -2.03892,14.174991 4.88869,26.310249 15.81988,34.789027 2.76536,2.14496 6.55097,4.011496 9.78959,5.265958 1.22152,0.473146 2.43817,0.963878 3.70416,1.397024 0.79242,0.271124 1.33638,0.471192 2.11667,0.587545 2.76341,0.412055 6.13576,0.823189 8.99583,1.199814 8.00849,1.054586 17.14742,4.953493 19.17474,13.910633 0.63281,2.79602 0.67301,5.42218 0.66901,8.20208 -0.002,1.11192 -0.19531,2.23359 -0.40646,3.43959 -0.81154,4.63497 -1.56686,9.57919 -2.70729,14.2875 -2.16983,8.95817 -4.94542,17.87016 -7.49387,26.72292 -1.9081,6.62827 -4.2047,13.53625 -8.38113,19.05 -1.42744,1.88451 -2.89105,3.49839 -5.08833,4.47156 -1.28781,0.57038 -2.78973,0.94006 -4.23333,1.08365 -0.91687,0.0912 -1.67067,0.23784 -2.64584,0.26174 -3.31272,0.0812 -6.90107,-0.22375 -10.05416,0.33603 -3.06523,0.54419 -6.09629,2.32999 -8.46667,4.13902 -7.35383,5.61232 -8.5512,16.45727 -5.61198,24.633 2.41132,6.70734 6.47926,13.23795 10.85567,18.78541 4.02244,5.09879 9.09668,9.80864 14.60006,13.39228 3.25133,2.11718 6.96761,4.00938 10.58333,5.4297 0.80083,0.31455 1.31309,0.37811 2.11667,0.55058 1.42615,0.30612 3.07951,0.82518 4.49792,1.18798 0.56804,0.14531 1.00598,0.26661 1.5875,0.33871 0.70414,0.0873 1.09257,0.20279 1.85208,0.37481 0.7032,0.15888 1.13876,0.13968 1.85208,0.16088 0.90161,0.0268 1.61924,0.2055 2.64584,0.2505 1.80784,0.0792 4.04024,0.13497 5.82083,-0.0345 0.73599,-0.07 1.38028,-0.16821 2.11667,-0.22721 4.25447,-0.34113 9.30477,-2.61819 12.96458,-5.22633 5.78757,-4.12446 10.20145,-9.55268 14.11112,-15.40362 0.79268,-1.18629 1.6865,-2.28558 2.44433,-3.43958 2.1631,-3.29385 3.94135,-6.84115 5.8537,-10.31875 1.43395,-2.60762 2.63955,-5.59129 3.91791,-8.20208 1.76742,-3.60954 3.22404,-7.36745 4.73535,-11.1125 0.73194,-1.81378 1.48057,-3.40409 2.57887,-5.29167 2.01451,-3.46222 5.43211,-7.74142 10.01497,-6.82526 2.24959,0.44968 3.88126,2.96832 5.14877,4.70859 1.6008,2.1979 2.66351,4.72452 3.84808,7.14375 0.98723,2.01619 1.94517,4.3186 2.9639,6.35 0.68775,1.37143 1.49298,2.83743 2.06196,4.23334 2.24137,5.49895 5.37559,11.62868 7.841138,17.19791 1.439447,3.25145 3.464888,6.53226 5.391919,9.525 1.470566,2.28384 2.796131,4.72226 4.452796,6.87917 1.779252,2.31653 3.936323,4.73389 6.391438,6.43617 0.912913,0.63297 1.702658,1.16679 2.645834,1.72793 2.010988,1.19647 4.020184,2.11328 6.085416,2.988 6.744179,2.85648 14.139867,3.21169 21.166667,1.21146 1.350919,-0.38454 2.642814,-0.87957 3.96875,-1.4099 1.030687,-0.41222 1.872124,-0.70722 2.910417,-1.19573 4.122471,-1.93954 7.720087,-4.57349 11.377083,-7.30543 5.075562,-3.79166 9.760435,-8.21248 13.869793,-13.03583 3.166829,-3.71709 6.280431,-7.71155 8.564271,-12.17084 3.6981909,-7.22081 3.9973005,-16.09507 0.307022,-23.28333 -0.916158,-1.78455 -1.931762,-3.05459 -3.274202,-4.45299 -2.38813,-2.4877 -5.622784,-4.3799 -9.148134,-5.00444 -5.314356,-0.94145 -12.599328,-0.0213 -16.933333,-3.59413 -4.625832,-3.81343 -7.210655,-10.14218 -9.665657,-15.52344 -5.359589,-11.74802 -9.86713,-24.82768 -12.461352,-37.57083 -0.568941,-2.7947 -0.736873,-5.74361 -1.353535,-8.46667 -0.248756,-1.09843 -0.326746,-1.62621 -0.331746,-2.64584 -0.0068,-1.39062 -0.113705,-2.60978 -0.113705,-4.23333 0,-0.909 0.09583,-1.5109 0.114512,-2.38125 0.02484,-1.15674 0.345328,-2.30968 0.663913,-3.70417 1.50661,-6.59463 6.627842,-11.05678 12.564236,-13.71198 2.664793,-1.1919 5.340518,-1.995 8.202084,-3.022089 3.420576,-1.227719 7.406234,-1.828554 10.847916,-3.022716 4.017617,-1.393988 8.187065,-3.210302 11.641667,-5.654645 1.392131,-0.985018 2.656459,-2.211913 3.96875,-3.319743 4.206139,-3.550817 7.6301866,-8.299493 9.93024,-13.337574 3.7989932,-8.321392 3.6257479,-18.085815 -0.04428,-26.458334 -3.033665,-6.920734 -10.129017,-12.410935 -17.294293,-14.022917 -1.162478,-0.261515 -2.336049,-0.43967 -3.439584,-0.716978 -0.699392,-0.175749 -1.136542,-0.289499 -1.852083,-0.346879 -0.792006,-0.06351 -1.229947,-0.146246 -2.116667,-0.245786 -0.853145,-0.09578 -1.297821,-0.197793 -2.116666,-0.254183 -1.016007,-0.06996 -2.38427,-0.220042 -3.704167,-0.277842 -1.503639,-0.06584 -3.61538,0.01205 -5.027083,0.178623 -0.955562,0.11275 -1.523131,0.02233 -2.645834,0.09922 -1.160313,0.07945 -1.721987,0.17727 -2.910416,0.26439 -0.980157,0.07185 -1.499473,0.196482 -2.38125,0.241102 -0.810787,0.04104 -1.275455,0.141448 -2.116667,0.331957 -0.861979,0.195212 -1.315262,0.152652 -2.116667,0.211292 -0.630371,0.04612 -0.992429,0.178881 -1.5875,0.327273 -1.209987,0.301726 -1.842248,0.156386 -3.175,0.48915 -4.102511,1.02434 -9.538419,2.026346 -13.758333,3.176017 -1.325242,0.361057 -4.202085,0.279524 -5.291667,0.415158 z"
       id="path1"
       sodipodi:nodetypes="ccsssssscssssssccsssssssssssssssscsssssssssssssssscsssssssscsscssscssssssssssssccssssssssssssssssssssssssssssccsscssssssscsccsssssssscscsscccs" /></g></svg>
