<svg version="1.0" xmlns="http://www.w3.org/2000/svg" width="600.000000pt" height="328.000000pt" viewBox="0 0 600.000000 328.000000" preserveAspectRatio="xMidYMid meet" style="width: 517.211px; height: auto;"> <g transform="translate(0.000000,328.000000) scale(0.100000,-0.100000)" fill="#000000" stroke="none"> <path d="M2890 2976 c-156 -33 -295 -154 -355 -307 -76 -192 -48 -382 79 -548 l48 -63 -42 7 c-24 4 -98 24 -165 45 -210 66 -283 72 -363 31 -78 -40 -124 -121 -124 -220 -1 -150 87 -230 359 -324 188 -66 215 -87 221 -176 5 -68 -18 -161 -78 -310 -86 -218 -153 -322 -216 -336 -118 -27 -155 -48 -184 -104 -58 -115 1 -236 153 -311 180 -88 307 -91 419 -11 56 40 104 103 208 273 155 253 152 253 321 -25 168 -276 263 -337 461 -293 267 59 404 256 277 400 -29 33 -53 44 -166 75 -32 9 -49 22 -71 54 -105 153 -232 501 -219 600 10 77 49 103 249 173 180 63 258 112 306 192 36 63 39 174 5 238 -30 56 -93 109 -150 125 -60 16 -151 2 -323 -52 -69 -22 -143 -42 -165 -46 l-40 -6 44 49 c112 128 158 315 116 479 -72 285 -329 451 -605 391z m260 -54 c68 -24 108 -48 161 -96 l40 -38 -32 -24 c-18 -13 -37 -24 -43 -24 -6 0 -27 17 -49 38 -34 33 -43 37 -90 37 -44 0 -58 -5 -94 -34 l-42 -33 -43 31 c-75 54 -128 50 -187 -13 -30 -32 -48 -32 -86 -1 l-29 24 24 27 c53 56 160 111 250 128 47 9 165 -3 220 -22z m-210 -167 c30 -19 58 -35 63 -35 5 0 31 16 57 35 64 47 95 46 153 -5 53 -47 74 -49 116 -14 26 22 34 24 47 14 13 -11 8 -18 -32 -47 -26 -18 -58 -33 -71 -33 -13 0 -42 17 -67 40 -52 48 -80 51 -131 10 -64 -51 -91 -49 -158 6 -39 33 -59 30 -112 -16 -30 -26 -56 -40 -74 -40 -26 0 -111 53 -111 70 0 21 24 20 55 -4 43 -33 67 -33 107 2 72 62 85 64 158 17z m292 -101 c38 -20 80 -13 125 22 19 14 40 23 48 20 20 -7 56 -130 62 -213 10 -131 -39 -263 -138 -370 -82 -90 -25 -116 147 -67 82 23 98 25 125 14 22 -9 28 -17 23 -29 -23 -56 -26 -70 -20 -95 4 -18 19 -32 44 -43 20 -10 38 -18 40 -19 2 -1 -4 -16 -13 -34 -26 -51 -17 -91 27 -115 65 -34 46 -61 -69 -99 -43 -15 -102 -40 -131 -57 -91 -51 -111 -131 -73 -282 23 -89 85 -250 140 -362 35 -71 38 -81 25 -99 -8 -11 -14 -33 -14 -49 0 -27 -2 -28 -32 -21 -18 4 -44 7 -58 6 -36 -2 -70 -46 -70 -89 0 -32 -2 -35 -22 -29 -68 20 -86 19 -112 -7 -14 -15 -26 -38 -26 -52 0 -14 -3 -25 -8 -25 -4 0 -27 33 -52 73 -108 177 -152 227 -202 227 -33 0 -97 -72 -170 -191 -73 -119 -73 -119 -81 -86 -12 47 -53 80 -91 74 -17 -3 -38 -8 -48 -12 -13 -5 -17 2 -23 33 -3 22 -17 50 -30 62 -21 20 -32 22 -73 17 l-49 -6 -12 39 c-6 22 -15 41 -19 44 -5 3 12 47 36 98 104 219 152 368 152 477 0 111 -40 152 -205 211 -82 29 -125 57 -125 81 0 5 6 9 14 9 24 0 76 50 76 73 -1 12 -7 33 -15 47 -21 37 -19 45 20 63 50 24 63 56 40 106 -9 22 -15 44 -11 49 14 22 59 22 143 -3 128 -37 202 -31 185 14 -3 9 -28 43 -56 76 -93 112 -136 253 -117 382 12 79 47 183 62 183 6 0 25 -11 42 -24 65 -49 120 -46 180 9 21 19 42 35 46 35 5 0 25 -13 45 -29 65 -52 118 -48 191 12 l30 25 33 -29 c18 -16 46 -36 64 -45z m659 -550 c77 -39 125 -153 99 -236 -16 -57 -42 -92 -95 -128 l-43 -30 -10 30 c-6 16 -24 36 -42 45 -23 12 -30 21 -25 33 25 61 26 71 11 100 -8 16 -29 35 -46 42 -26 11 -30 17 -25 34 15 45 17 87 5 101 -10 12 -9 16 1 19 48 17 126 12 170 -10z m-1608 10 c3 -3 1 -19 -5 -36 -8 -24 -7 -38 6 -66 17 -35 11 -51 -18 -52 -6 0 -20 -10 -33 -22 -26 -25 -29 -61 -8 -102 8 -15 15 -30 15 -32 0 -2 -16 -11 -35 -20 -24 -11 -37 -26 -43 -46 l-7 -29 -42 30 c-22 16 -54 46 -69 67 -26 34 -29 45 -29 115 0 70 3 81 30 120 42 58 85 79 166 79 36 0 68 -3 72 -6z m90 -20 c3 -4 -4 -15 -16 -24 l-22 -18 22 -46 c13 -25 20 -52 17 -60 -3 -8 -23 -21 -44 -30 -21 -8 -41 -20 -45 -27 -4 -6 3 -33 15 -60 27 -56 21 -71 -36 -89 -27 -9 -34 -17 -34 -37 0 -27 -17 -27 -34 0 -15 24 3 50 42 61 41 11 47 31 21 72 -30 50 -20 80 36 104 25 11 45 22 45 24 0 3 -10 26 -22 50 -21 44 -21 46 -3 66 18 20 45 26 58 14z m1308 -4 c23 -13 25 -56 4 -84 -25 -33 -18 -52 24 -68 55 -22 65 -46 41 -94 -28 -53 -26 -62 20 -80 34 -14 40 -21 40 -45 0 -16 -2 -29 -4 -29 -2 0 -11 -2 -19 -5 -9 -4 -13 1 -13 17 1 18 -9 27 -41 42 -35 16 -43 24 -43 45 0 14 7 35 15 45 27 36 19 62 -25 80 -50 20 -58 38 -36 82 22 47 20 71 -5 79 -17 6 -19 9 -8 16 18 11 26 11 50 -1z m-1286 -1327 c4 -21 11 -41 16 -44 5 -3 32 -1 59 5 61 12 74 2 87 -64 10 -52 26 -59 84 -40 30 10 41 10 53 1 20 -17 40 -111 26 -125 -13 -13 -30 9 -30 40 0 11 -6 28 -13 38 -11 15 -17 16 -60 4 -62 -16 -78 -6 -92 58 l-10 49 -65 0 c-58 0 -65 2 -77 25 -13 26 -17 82 -7 93 12 12 22 -2 29 -40z m1246 -4 c-6 -78 -24 -91 -99 -70 -39 12 -62 -6 -62 -47 0 -60 -43 -85 -106 -62 -28 11 -54 -1 -54 -26 0 -7 -5 -25 -10 -39 -8 -21 -13 -25 -24 -16 -10 9 -11 20 -1 56 16 64 35 81 76 66 67 -23 89 -12 89 47 1 50 21 63 91 60 l64 -3 3 30 c4 44 10 57 25 52 8 -2 11 -19 8 -48z m-1279 -96 c9 -12 26 -14 69 -10 l57 5 7 -36 c9 -47 58 -96 88 -88 68 20 77 19 77 -3 0 -12 7 -35 14 -50 14 -27 14 -29 -27 -68 -84 -81 -157 -98 -281 -64 -190 52 -293 153 -272 265 9 46 57 93 109 106 23 5 60 16 82 23 l40 12 12 -38 c7 -22 18 -46 25 -54z m1333 88 c3 -5 31 -15 63 -21 109 -23 152 -64 152 -145 0 -59 -18 -93 -76 -144 -58 -51 -216 -111 -294 -111 -56 0 -129 31 -176 74 l-48 43 17 35 c9 20 17 43 17 52 0 19 7 20 47 6 57 -20 113 27 113 94 0 25 1 26 58 20 55 -6 60 -5 80 21 12 15 22 41 22 56 0 28 13 38 25 20z" class=""></path> <path d="M2792 2534 c-40 -27 -18 -104 29 -104 29 0 59 31 59 60 0 28 -30 60 -55 60 -6 0 -21 -7 -33 -16z"></path> <path d="M3140 2530 c-11 -11 -20 -29 -20 -40 0 -11 9 -29 20 -40 11 -11 29 -20 40 -20 11 0 29 9 40 20 11 11 20 29 20 40 0 11 -9 29 -20 40 -11 11 -29 20 -40 20 -11 0 -29 -9 -40 -20z"></path> <path d="M2805 2300 c-16 -27 61 -98 129 -120 103 -33 266 37 266 115 0 25 -20 17 -59 -23 -80 -82 -212 -79 -284 8 -27 31 -41 37 -52 20z"></path> <path d="M2959 1867 c-19 -15 -39 -50 -39 -71 0 -28 50 -76 80 -76 74 0 110 95 54 139 -30 23 -71 27 -95 8z" class=""></path> <path d="M2968 1572 c-43 -22 -58 -63 -37 -100 43 -78 149 -54 149 33 0 63 -54 96 -112 67z" class=""></path> <path d="M2959 1277 c-25 -19 -41 -57 -35 -83 9 -33 45 -64 77 -64 73 0 109 95 53 139 -30 23 -71 27 -95 8z" class=""></path> </g> </svg>